<?xml version="1.0" standalone="no"?>
<!DOCTYPE svg PUBLIC "-//W3C//DTD SVG 20010904//EN"
 "http://www.w3.org/TR/2001/REC-SVG-20010904/DTD/svg10.dtd">
<svg version="1.0" xmlns="http://www.w3.org/2000/svg"
 width="550.000000pt" height="367.000000pt" viewBox="0 0 550.000000 367.000000"
 preserveAspectRatio="xMidYMid meet">

<g transform="translate(0.000000,367.000000) scale(0.100000,-0.100000)"
fill="#000000" stroke="none">
<path d="M0 1855 c0 -998 3 -1815 6 -1815 3 0 14 5 25 10 15 9 19 7 19 -5 0
-9 -4 -14 -9 -11 -13 9 -38 -3 -38 -17 0 -10 15 -7 53 7 30 12 54 27 54 34 0
6 5 12 11 12 6 0 8 -8 4 -19 -4 -15 -1 -18 20 -16 16 2 25 -2 25 -10 0 -8 5
-17 10 -20 7 -4 9 3 6 19 -3 15 0 26 6 26 6 0 43 14 81 32 59 27 66 33 47 40
-12 4 -19 12 -15 18 3 5 0 7 -8 4 -8 -3 -17 -1 -20 3 -8 12 261 126 275 117 6
-4 8 -3 5 2 -3 6 6 15 21 21 15 7 54 23 86 38 33 14 66 23 73 20 8 -2 12 -1 9
4 -7 11 203 103 217 94 6 -3 7 -1 3 5 -4 7 -2 12 5 12 13 0 180 72 314 135 50
23 119 53 155 65 36 13 69 27 75 32 5 4 15 8 23 8 18 0 333 -100 347 -110 6
-4 24 -10 40 -14 17 -4 127 -38 245 -77 201 -64 264 -88 233 -89 -7 0 -13 -6
-13 -14 0 -8 -9 -18 -20 -21 -11 -4 -18 -11 -15 -16 4 -5 -4 -10 -17 -10 -19
-1 -18 -3 7 -9 28 -7 29 -8 4 -9 -14 0 -30 -6 -36 -12 -8 -8 -17 -5 -32 10
-20 20 -20 23 -6 37 16 17 20 28 6 20 -5 -3 -35 3 -67 13 -66 22 -430 148
-539 187 -100 36 -105 37 -105 26 0 -14 25 -28 70 -37 19 -4 55 -17 80 -28 25
-11 52 -21 60 -22 26 -3 153 -45 164 -54 6 -4 41 -16 78 -26 40 -10 65 -22 61
-28 -3 -6 -1 -7 6 -3 12 8 138 -29 155 -45 26 -24 -14 -17 -132 22 -123 41
-132 42 -171 29 -22 -7 -43 -20 -46 -28 -5 -13 -8 -12 -19 3 -8 11 -20 16 -30
12 -9 -4 -16 -1 -16 5 0 6 -3 9 -6 5 -4 -3 -13 0 -21 8 -17 17 -33 19 -33 5 0
-5 6 -10 13 -10 8 0 7 -4 -3 -10 -22 -14 -30 -12 -24 5 4 8 1 15 -5 15 -6 0
-11 -6 -11 -13 0 -21 23 -44 55 -55 17 -5 38 -13 49 -17 15 -7 17 -5 12 12 -6
17 -3 20 19 15 18 -3 25 -11 25 -28 0 -27 15 -31 36 -9 22 22 34 18 34 -10 0
-14 5 -25 10 -25 6 0 10 5 10 10 0 6 11 10 25 10 17 0 23 -4 19 -14 -7 -18 -2
-21 111 -61 86 -30 96 -32 104 -17 9 15 11 15 29 -1 11 -10 26 -15 36 -11 19
7 21 -6 3 -31 -13 -17 -16 -17 -47 -2 -18 9 -42 14 -54 11 -16 -4 -577 184
-718 241 -13 5 -18 18 -18 46 0 30 -3 37 -15 33 -11 -5 -13 -2 -9 10 4 10 1
16 -9 16 -8 0 -20 6 -26 13 -8 11 -5 16 15 26 14 6 29 10 32 7 4 -2 16 5 27
16 20 19 20 19 -5 10 -52 -21 -258 -111 -335 -147 -85 -40 -131 -47 -146 -24
-5 8 -9 9 -9 3 0 -14 -109 -60 -132 -56 -12 2 -18 -3 -18 -15 0 -11 -3 -14 -8
-7 -5 8 -16 7 -37 -2 -16 -7 -23 -14 -15 -14 8 -1 -29 -23 -82 -51 -54 -27
-98 -55 -98 -62 -1 -6 -35 -28 -78 -47 -42 -19 -136 -63 -209 -97 -182 -87
-178 -93 64 -93 115 0 192 4 205 11 13 7 18 7 14 1 -4 -8 81 -11 271 -12 256
0 276 1 255 15 -37 26 -25 35 20 15 26 -11 45 -15 49 -9 3 5 14 6 24 3 18 -7
18 -8 -1 -15 -10 -4 156 -7 369 -8 286 -1 387 2 381 10 -3 6 -1 15 6 19 9 6 7
10 -9 15 -19 6 -30 25 -14 25 17 0 72 -46 68 -57 -3 -9 9 -13 40 -13 25 0 45
5 45 10 0 6 7 10 15 10 8 0 15 -4 15 -10 0 -14 43 -13 58 2 9 9 12 9 12 0 0
-7 5 -11 12 -9 18 3 37 21 31 30 -2 4 0 7 6 7 5 0 13 -9 16 -20 6 -18 15 -20
81 -20 48 0 73 4 69 10 -3 5 1 10 11 10 9 0 22 7 29 17 8 11 18 14 31 9 18 -7
17 -8 -6 -26 -25 -19 -24 -20 155 -20 120 0 175 4 165 10 -13 8 -12 10 3 10 9
0 17 -4 17 -9 0 -5 50 -9 111 -8 70 0 105 3 96 9 -9 5 -27 7 -41 4 -25 -4 -37
9 -29 32 3 6 13 12 24 12 10 0 19 3 20 8 0 4 2 19 4 34 3 24 -2 29 -41 44 -54
20 -51 31 3 13 55 -19 59 -19 60 2 1 12 -5 19 -15 19 -15 0 -15 -2 -2 -10 13
-8 13 -10 -1 -10 -9 0 -30 5 -48 11 -20 7 -40 8 -59 1 -30 -10 -72 3 -72 23 0
12 -56 35 -86 35 -16 0 -17 -2 -4 -10 25 -16 1 -11 -50 11 -27 12 -56 19 -65
15 -8 -3 -15 -1 -15 4 0 6 -8 10 -19 10 -10 0 -36 7 -57 16 -26 11 -39 13 -42
5 -2 -6 -18 -11 -35 -11 -24 0 -28 -3 -17 -10 8 -5 11 -10 5 -10 -5 0 -3 -5 5
-10 8 -5 23 -7 33 -4 16 5 17 3 8 -15 -14 -25 -9 -24 -60 -6 -23 8 -48 12 -55
9 -8 -3 -17 0 -21 5 -3 6 -11 9 -16 6 -5 -3 -19 3 -31 14 -12 12 -30 21 -40
21 -23 0 -24 16 0 22 9 3 41 4 71 3 30 -1 50 0 44 2 -6 2 -9 13 -6 24 4 14 11
18 24 14 33 -11 20 12 -13 23 -25 9 -27 10 -6 7 14 -3 33 -8 41 -11 9 -3 23 3
33 14 10 13 24 18 37 14 20 -5 20 -6 1 -13 -17 -7 -16 -8 6 -9 14 -1 34 -6 45
-11 16 -7 13 -8 -12 -5 -18 3 -35 1 -38 -4 -3 -6 -1 -11 4 -11 6 -1 14 -3 19
-4 4 -1 22 -6 39 -10 19 -4 30 -12 26 -18 -3 -6 -1 -7 5 -3 6 4 35 0 64 -9 62
-18 82 -19 72 -3 -4 7 -3 8 5 4 6 -4 19 0 28 10 16 15 17 15 24 -3 4 -12 21
-23 41 -27 26 -5 30 -9 18 -17 -11 -7 -7 -8 14 -3 20 5 27 4 22 -4 -8 -13 20
-6 40 9 6 5 43 -2 85 -16 41 -14 108 -35 149 -46 41 -11 77 -25 78 -30 2 -5 8
-6 13 -3 6 3 15 2 22 -3 7 -5 25 -10 42 -12 16 -2 46 -11 65 -21 19 -9 41 -15
48 -13 6 3 12 -3 12 -12 0 -12 5 -15 17 -11 9 4 19 3 22 -2 3 -4 58 -25 121
-45 107 -34 124 -37 237 -37 l121 0 50 62 c28 35 82 101 121 148 39 47 74 90
78 95 5 6 38 45 76 87 37 42 67 80 67 86 0 5 7 13 16 16 9 4 15 9 12 11 -3 3
21 34 54 68 32 34 61 72 65 84 3 13 9 20 14 17 12 -7 31 46 24 65 -4 9 -6 151
-6 317 l1 301 -41 19 -41 18 27 21 c82 62 81 59 100 210 23 184 107 773 205
1434 16 112 30 207 30 211 0 6 -86 24 -172 36 -39 5 -47 3 -52 -13 -3 -10 -3
11 0 47 l5 65 -28 1 c-30 2 -147 34 -141 39 2 2 26 -1 53 -6 28 -5 77 -11 110
-13 33 -2 87 -7 120 -11 86 -11 62 3 -48 28 -70 17 -118 21 -190 19 -90 -3
-97 -5 -97 -24 0 -17 -2 -18 -15 -8 -10 9 -15 9 -15 1 0 -6 -5 -11 -11 -11 -5
0 -7 5 -4 10 4 6 -47 10 -146 10 -143 0 -151 -1 -138 -17 13 -16 12 -17 -3 -5
-13 11 -67 12 -260 8 -585 -13 -1025 -15 -923 -5 55 6 100 11 101 12 1 1 4 54
6 117 2 63 2 107 0 98 -5 -25 -42 -23 -42 2 0 20 -7 20 -1460 20 l-1460 0 0
-1815z m4210 1565 c0 -5 -2 -10 -4 -10 -3 0 -8 5 -11 10 -3 6 -1 10 4 10 6 0
11 -4 11 -10z m57 4 c-3 -3 -12 -4 -19 -1 -8 3 -5 6 6 6 11 1 17 -2 13 -5z
m-348 -107 c13 -15 13 -18 1 -15 -21 4 -42 36 -34 50 6 9 9 8 12 -2 3 -8 12
-23 21 -33z m271 27 c0 -13 7 -15 29 -11 26 6 29 3 33 -23 5 -33 -16 -43 -25
-12 -2 11 -17 22 -36 25 -31 7 -45 37 -16 37 8 0 15 -7 15 -16z m-455 -32 c-8
-9 -25 20 -18 31 3 5 10 2 15 -7 6 -10 7 -20 3 -24z m-1373 -31 c2 -17 1 -28
-4 -25 -8 5 -12 54 -4 54 2 0 6 -13 8 -29z m2328 -11 c0 -5 -7 -10 -15 -10 -8
0 -15 5 -15 10 0 6 7 10 15 10 8 0 15 -4 15 -10z m-113 -37 c-3 -10 -5 -4 -5
12 0 17 2 24 5 18 2 -7 2 -21 0 -30z m-377 7 c0 -17 -7 -20 -40 -20 -30 0 -38
3 -34 14 3 8 20 17 37 19 18 2 33 5 35 5 1 1 2 -7 2 -18z m250 -1 c0 -14 -20
-21 -46 -15 -39 10 -30 33 11 28 19 -2 35 -8 35 -13z m247 -5 c6 -16 -12 -34
-34 -34 -7 0 -13 9 -13 19 0 18 12 28 33 30 4 1 10 -6 14 -15z m-1437 -9 c-11
-13 -35 -15 -128 -13 -81 2 -117 7 -120 16 -3 9 27 12 128 12 118 0 131 -2
120 -15z m680 5 c0 -5 -2 -10 -4 -10 -3 0 -8 5 -11 10 -3 6 -1 10 4 10 6 0 11
-4 11 -10z m627 -77 c-3 -10 -5 -2 -5 17 0 19 2 27 5 18 2 -10 2 -26 0 -35z
m-424 20 c-7 -2 -19 -2 -25 0 -7 3 -2 5 12 5 14 0 19 -2 13 -5z m-1152 -40 c2
-76 10 -374 10 -395 0 -15 3 -29 7 -32 4 -2 6 -23 4 -45 -3 -34 -8 -41 -26
-41 -11 0 -31 8 -44 18 l-23 18 11 238 c6 131 13 242 16 247 10 16 44 10 45
-8z m493 1 c3 -9 6 -22 6 -30 0 -8 11 -25 25 -37 l26 -22 -30 -115 c-16 -63
-35 -144 -41 -180 -6 -36 -21 -85 -33 -108 l-22 -44 -180 7 c-99 4 -183 9
-187 11 -4 3 -7 111 -8 240 0 130 -3 241 -6 246 -4 6 0 14 7 19 10 6 11 9 2 9
-7 0 -13 5 -13 10 0 6 81 10 224 10 195 0 225 -2 230 -16z m649 -21 c-7 -2
-19 -2 -25 0 -7 3 -2 5 12 5 14 0 19 -2 13 -5z m424 -30 c-3 -10 -5 -4 -5 12
0 17 2 24 5 18 2 -7 2 -21 0 -30z m-639 -55 c-3 -32 -4 -33 -55 -36 l-53 -3 0
35 0 36 56 0 55 0 -3 -32z m724 16 c40 -4 75 -8 77 -10 2 -2 -35 -4 -82 -4
-80 0 -87 -2 -87 -20 0 -11 6 -20 13 -20 6 0 3 -6 -8 -13 -18 -11 -14 -13 35
-18 l55 -6 -51 -1 c-51 -2 -52 -2 -56 -37 -3 -26 0 -35 12 -36 11 -1 11 -2 -2
-6 -10 -2 -18 -9 -18 -15 0 -6 27 -9 75 -6 94 4 84 -8 -12 -15 -85 -7 -80 -15
-62 118 14 98 16 108 28 101 5 -4 42 -9 83 -12z m-464 -21 c-3 -26 -6 -28 -53
-28 -47 0 -50 2 -53 28 -3 27 -3 27 53 27 56 0 56 0 53 -27z m-1521 -65 c-3
-7 -5 -2 -5 12 0 14 2 19 5 13 2 -7 2 -19 0 -25z m170 -110 c-3 -7 -5 -2 -5
12 0 14 2 19 5 13 2 -7 2 -19 0 -25z m1323 -28 c0 -17 -7 -20 -50 -20 -43 0
-50 3 -50 20 0 17 7 20 50 20 43 0 50 -3 50 -20z m-605 -37 c-7 -49 -25 -83
-25 -47 0 25 19 94 27 94 3 0 2 -21 -2 -47z m1110 37 c-16 -4 -47 -8 -67 -9
-20 0 -44 -4 -54 -8 -16 -6 -16 -7 1 -13 17 -6 17 -7 -3 -12 -18 -5 -22 -2
-22 17 0 21 5 24 48 28 26 2 65 4 87 4 38 1 38 0 10 -7z m-2008 -92 c-2 -18
-4 -4 -4 32 0 36 2 50 4 33 2 -18 2 -48 0 -65z m1163 61 c0 -5 -4 -9 -10 -9
-5 0 -10 7 -10 16 0 8 5 12 10 9 6 -3 10 -10 10 -16z m84 6 c-4 -8 -7 -15 -9
-15 -2 0 -5 7 -9 15 -3 9 0 15 9 15 9 0 12 -6 9 -15z m241 -15 c4 -6 -12 -10
-39 -10 -25 0 -46 5 -46 10 0 6 18 10 39 10 22 0 43 -4 46 -10z m-564 -37
c-17 -32 -40 -58 -41 -47 0 11 38 64 46 64 3 0 0 -8 -5 -17z m952 -33 c8 0 8
-3 -1 -8 -7 -5 -15 -24 -18 -44 l-6 -35 73 13 c41 7 75 11 77 9 5 -4 -20 -11
-93 -26 -33 -6 -55 -14 -48 -16 6 -2 29 0 50 6 21 6 52 11 68 11 45 -1 12 -15
-67 -30 -50 -9 -68 -17 -68 -28 0 -8 -2 -13 -5 -10 -3 3 0 48 7 99 6 52 14 86
16 77 2 -10 9 -18 15 -18z m64 24 c-3 -3 -12 -4 -19 -1 -8 3 -5 6 6 6 11 1 17
-2 13 -5z m-1727 -90 c0 -4 -9 3 -20 16 -11 13 -20 27 -20 33 0 5 9 -2 20 -16
11 -14 20 -29 20 -33z m661 13 c-10 -9 -11 -8 -5 6 3 10 9 15 12 12 3 -3 0
-11 -7 -18z m628 -103 c32 -5 33 -7 28 -42 -3 -20 -11 -83 -18 -139 -7 -57
-15 -103 -18 -103 -8 0 -81 94 -81 104 0 4 4 4 10 1 6 -4 7 1 3 11 -5 15 -7
15 -15 0 -8 -14 -12 -14 -31 -2 -20 13 -53 20 -84 17 -7 -1 -13 -9 -13 -18 0
-9 -3 -14 -6 -10 -8 7 -7 118 1 161 l6 31 92 -3 c51 -1 107 -5 126 -8z m404 9
c-7 -2 -19 -2 -25 0 -7 3 -2 5 12 5 14 0 19 -2 13 -5z m-26 -29 c-3 -3 -12 -4
-19 -1 -8 3 -5 6 6 6 11 1 17 -2 13 -5z m-35 -33 c-5 -3 -12 -13 -15 -21 -3
-9 -6 -4 -6 12 -1 21 3 26 15 21 9 -3 11 -9 6 -12z m65 13 c-3 -3 -12 -4 -19
-1 -8 3 -5 6 6 6 11 1 17 -2 13 -5z m-791 -54 c-9 -71 -27 -111 -20 -45 7 67
13 95 20 95 4 0 4 -23 0 -50z m807 33 c-7 -2 -19 -2 -25 0 -7 3 -2 5 12 5 14
0 19 -2 13 -5z m-46 -9 c-3 -3 -12 -4 -19 -1 -8 3 -5 6 6 6 11 1 17 -2 13 -5z
m-24 -31 c-7 -2 -19 -2 -25 0 -7 3 -2 5 12 5 14 0 19 -2 13 -5z m-653 -142
c-5 -35 -12 -66 -16 -70 -6 -6 3 89 13 122 10 37 12 10 3 -52z m207 16 c72
-76 102 -137 67 -137 -9 0 -30 -6 -47 -14 -55 -23 -192 -55 -170 -39 6 4 11
17 10 27 -2 17 4 19 58 17 43 -1 56 1 45 9 -13 8 -13 10 3 10 9 0 16 6 15 13
-2 6 4 12 12 12 8 0 14 -8 14 -17 -1 -10 4 -14 12 -11 12 4 12 8 2 22 -7 9
-13 17 -14 19 -5 10 -54 -13 -59 -27 -4 -13 -14 -16 -45 -13 l-40 4 0 77 1 76
29 -32 c16 -18 32 -33 34 -33 10 0 24 60 15 65 -11 8 -12 25 0 25 4 0 31 -24
58 -53z m-421 -38 c19 -21 19 -21 -6 -18 -14 2 -26 12 -28 22 -5 23 11 22 34
-4z m-822 -35 c3 -8 2 -12 -4 -9 -6 3 -10 10 -10 16 0 14 7 11 14 -7z m776
-30 c0 -8 -5 -12 -10 -9 -6 4 -8 11 -5 16 9 14 15 11 15 -7z m-2233 -81 c-3
-10 -8 -39 -12 -66 -5 -41 -8 -45 -21 -33 -20 21 -17 73 6 96 25 25 33 25 27
3z m-94 -83 c-3 -12 -8 -19 -11 -16 -5 6 5 36 12 36 2 0 2 -9 -1 -20z m1877
-80 c0 -5 -7 -10 -16 -10 -8 0 -12 5 -9 10 3 6 10 10 16 10 5 0 9 -4 9 -10z
m834 -5 c-4 -8 -8 -15 -10 -15 -2 0 -4 7 -4 15 0 8 4 15 10 15 5 0 7 -7 4 -15z
m136 -10 c0 -8 -11 -17 -25 -21 -26 -6 -32 -18 -15 -29 6 -3 10 -15 10 -26 0
-10 5 -19 11 -19 10 0 7 -31 -8 -83 -5 -18 -5 -18 -19 0 -12 16 -13 16 -14 1
0 -9 5 -29 10 -44 17 -44 3 -39 -20 6 -16 32 -19 45 -10 50 9 6 9 9 1 15 -11
6 -10 34 5 133 4 29 8 32 39 32 24 0 35 -5 35 -15z m-171 -32 c0 -25 -1 -25
-8 -8 -5 11 -7 23 -4 28 8 14 13 7 12 -20z m-2659 -14 c0 -20 4 -21 92 -18 90
4 93 3 105 -21 10 -19 13 -118 13 -411 l0 -386 -23 -21 c-13 -12 -27 -19 -32
-15 -4 5 -5 2 -1 -5 4 -7 12 -9 18 -6 16 10 77 22 76 15 -3 -24 5 -39 25 -49
32 -15 0 -14 -45 2 -48 17 -49 7 -3 -18 19 -11 33 -21 31 -23 -2 -2 -30 2 -63
10 -70 16 -104 8 -96 -22 3 -12 10 -21 17 -21 6 0 6 -4 -3 -9 -9 -6 -10 -11
-2 -15 8 -5 7 -12 -4 -22 -18 -18 -19 -45 -4 -98 9 -32 8 -41 -5 -54 -15 -15
-16 -15 -17 3 -1 16 -3 15 -9 -5 l-8 -25 -1 28 c-1 16 -5 26 -10 23 -5 -3 -11
6 -14 19 -2 14 0 28 4 31 5 3 9 26 8 52 0 33 -3 41 -8 27 -5 -12 -11 43 -15
135 -4 85 -10 159 -13 163 -3 5 -24 7 -47 5 l-41 -5 -4 337 -4 337 28 41 c30
45 55 55 55 21z m1339 -3 c15 -8 45 -36 66 -63 l39 -48 -45 40 c-25 22 -58 50
-75 62 -33 25 -26 30 15 9z m516 6 c-33 -28 -156 -42 -207 -23 -22 8 -22 9 10
15 18 4 49 5 70 2 20 -4 51 -2 67 3 39 12 72 13 60 3z m290 -2 c3 -5 1 -10 -4
-10 -6 0 -11 5 -11 10 0 6 2 10 4 10 3 0 8 -4 11 -10z m-56 -21 c17 -6 31 -15
31 -21 0 -6 -7 -7 -16 -4 -9 3 -29 6 -45 6 -21 0 -27 4 -23 15 7 18 12 18 53
4z m221 -19 c0 -31 -11 -36 -57 -24 -19 5 -20 9 -11 30 8 17 19 24 40 24 24 0
28 -4 28 -30z m-1183 -25 c0 -8 -4 -15 -9 -15 -4 0 -8 7 -8 15 0 8 4 15 8 15
5 0 9 -7 9 -15z m174 -2 c13 -16 12 -17 -3 -4 -17 13 -22 21 -14 21 2 0 10 -8
17 -17z m-138 -10 c-3 -7 -6 -13 -8 -13 -2 0 -5 6 -8 13 -3 8 1 14 8 14 7 0
11 -6 8 -14z m37 2 c0 -8 -4 -15 -8 -15 -5 0 -9 7 -9 15 0 8 4 15 9 15 4 0 8
-7 8 -15z m33 -9 c4 -10 1 -13 -8 -9 -8 3 -12 9 -9 14 7 12 11 11 17 -5z
m1379 -28 c-9 -9 -12 -7 -12 12 0 19 3 21 12 12 9 -9 9 -15 0 -24z m-1282 2
c6 -11 8 -20 6 -20 -3 0 -10 9 -16 20 -6 11 -8 20 -6 20 3 0 10 -9 16 -20z
m38 -99 c7 -19 12 -43 11 -55 0 -12 -8 4 -18 34 -10 30 -22 64 -26 75 l-7 20
14 -20 c8 -11 20 -35 26 -54z m1405 -63 c5 -20 4 -28 -6 -28 -11 0 -37 71 -37
103 0 18 35 -43 43 -75z m-1636 -34 c-3 -3 -12 -4 -19 -1 -8 3 -5 6 6 6 11 1
17 -2 13 -5z m10 -40 c-3 -3 -12 -4 -19 -1 -8 3 -5 6 6 6 11 1 17 -2 13 -5z
m109 -10 c18 -15 18 -15 -6 -9 -14 4 -30 7 -37 7 -16 2 -6 18 11 18 7 0 21 -7
32 -16z m92 -36 c-2 -13 -10 -23 -18 -23 -8 0 -14 6 -12 13 1 6 -8 13 -20 13
-19 1 -17 3 7 9 46 12 47 12 43 -12z m1920 -33 c-15 -13 -219 -155 -223 -155
-2 0 -2 12 0 28 3 15 7 38 8 50 3 17 27 39 88 79 l84 54 23 -26 c13 -15 22
-28 20 -30z m-1057 9 c13 -16 12 -16 -7 -6 -11 6 -27 19 -35 28 -13 16 -12 16
7 6 11 -6 27 -19 35 -28z m-964 -10 c-3 -3 -12 -4 -19 -1 -8 3 -5 6 6 6 11 1
17 -2 13 -5z m1166 -81 c-7 -2 -19 -2 -25 0 -7 3 -2 5 12 5 14 0 19 -2 13 -5z
m-1192 -12 c-12 -8 -51 -4 -51 5 0 2 15 4 33 4 22 0 28 -3 18 -9z m1252 2 c-7
-2 -19 -2 -25 0 -7 3 -2 5 12 5 14 0 19 -2 13 -5z m70 -10 c-7 -2 -21 -2 -30
0 -10 3 -4 5 12 5 17 0 24 -2 18 -5z m205 -25 c36 -3 56 -18 24 -18 -51 0 -82
13 -82 33 0 19 1 19 13 4 6 -9 27 -18 45 -19z m-89 6 c8 -7 -54 -2 -79 6 -17
6 -9 7 25 3 28 -3 52 -7 54 -9z m-1191 -56 c-2 -25 -7 -32 -20 -30 -20 3 -59
-15 -70 -32 -4 -6 -8 1 -8 17 0 15 5 27 11 27 5 0 8 4 5 9 -5 8 55 39 77 40 5
1 7 -14 5 -31z m-667 -178 c122 -33 129 -55 29 -95 -39 -16 -69 -29 -68 -31 7
-7 103 18 155 40 32 13 60 23 62 21 13 -13 -16 -35 -80 -59 -41 -16 -79 -35
-86 -43 -6 -8 -20 -13 -30 -12 -10 2 -67 -20 -126 -49 -70 -34 -115 -51 -128
-47 -20 7 -24 17 -11 29 4 4 7 13 7 19 0 7 23 15 55 18 57 6 146 35 155 49 13
21 -18 18 -71 -5 -71 -31 -82 -31 -200 2 -78 22 -99 32 -107 51 -9 20 -16 23
-44 19 -22 -4 -31 -2 -27 5 4 6 25 8 52 5 38 -4 67 3 181 49 76 29 153 53 174
54 20 0 69 -9 108 -20z m2134 -114 c201 -40 260 -55 258 -67 -29 -205 -33
-223 -57 -248 -63 -66 -115 -123 -118 -131 -2 -5 -29 -35 -60 -68 -55 -58 -88
-81 -88 -62 0 9 19 151 25 188 3 16 -2 26 -18 32 -22 9 -153 40 -687 161 -145
33 -265 61 -267 63 -4 3 77 56 270 178 l118 74 182 -34 c100 -19 299 -58 442
-86z m-1662 87 c-7 -2 -19 -2 -25 0 -7 3 -2 5 12 5 14 0 19 -2 13 -5z m44 -9
c-3 -3 -12 -4 -19 -1 -8 3 -5 6 6 6 11 1 17 -2 13 -5z m68 -14 c7 -12 -2 -12
-30 0 -19 8 -19 9 2 9 12 1 25 -3 28 -9z m-365 -10 c8 -5 12 -12 9 -15 -8 -8
-39 5 -39 16 0 11 11 11 30 -1z m833 3 c-7 -2 -19 -2 -25 0 -7 3 -2 5 12 5 14
0 19 -2 13 -5z m82 -13 l20 -9 -20 1 c-11 0 -31 4 -45 8 l-25 8 25 0 c14 0 34
-3 45 -8z m52 -16 c-3 -3 -12 -4 -19 -1 -8 3 -5 6 6 6 11 1 17 -2 13 -5z
m-604 -11 c-7 -2 -19 -2 -25 0 -7 3 -2 5 12 5 14 0 19 -2 13 -5z m44 -9 c-3
-3 -12 -4 -19 -1 -8 3 -5 6 6 6 11 1 17 -2 13 -5z m-1082 -14 c3 -5 1 -10 -4
-10 -6 0 -11 5 -11 10 0 6 2 10 4 10 3 0 8 -4 11 -10z m1255 6 c0 -2 -7 -7
-16 -10 -8 -3 -12 -2 -9 4 6 10 25 14 25 6z m407 -22 c-3 -3 -12 -4 -19 -1 -8
3 -5 6 6 6 11 1 17 -2 13 -5z m-2207 -50 c0 -8 -4 -12 -10 -9 -5 3 -10 10 -10
16 0 5 5 9 10 9 6 0 10 -7 10 -16z m30 6 c0 -5 -4 -10 -10 -10 -5 0 -10 5 -10
10 0 6 5 10 10 10 6 0 10 -4 10 -10z m1258 -4 c-48 -35 -96 -62 -92 -52 2 6
20 20 39 30 19 11 35 23 35 28 0 5 5 6 11 3 6 -4 9 -8 7 -9z m-1378 -13 c0 -7
-7 -13 -15 -13 -8 0 -15 6 -15 13 0 8 7 14 15 14 8 0 15 -6 15 -14z m25 8 c3
-5 1 -12 -5 -16 -5 -3 -10 1 -10 9 0 18 6 21 15 7z m35 5 c0 -3 -4 -8 -10 -11
-5 -3 -10 -1 -10 4 0 6 5 11 10 11 6 0 10 -2 10 -4z m-135 -15 c3 -5 1 -12 -5
-16 -5 -3 -10 1 -10 9 0 18 6 21 15 7z m30 -1 c3 -5 1 -10 -4 -10 -6 0 -11 5
-11 10 0 6 2 10 4 10 3 0 8 -4 11 -10z m1886 -7 c13 -16 12 -17 -3 -4 -17 13
-22 21 -14 21 2 0 10 -8 17 -17z m-1066 -3 c3 -5 2 -10 -4 -10 -5 0 -13 5 -16
10 -3 6 -2 10 4 10 5 0 13 -4 16 -10z m705 7 c0 -2 -10 -12 -22 -23 l-23 -19
19 23 c18 21 26 27 26 19z m-754 -45 c-4 -3 -12 0 -19 7 -9 9 -9 14 3 21 11 7
16 5 18 -6 2 -9 1 -18 -2 -22z m234 -36 c0 -3 -4 -8 -10 -11 -5 -3 -10 -1 -10
4 0 6 5 11 10 11 6 0 10 -2 10 -4z m263 -44 c4 10 6 10 6 0 1 -19 -30 -27 -40
-11 -15 24 -10 33 10 15 15 -13 20 -14 24 -4z m717 -26 c0 -26 -26 -49 -48
-42 l-21 7 21 35 c16 28 23 32 34 23 8 -6 14 -17 14 -23z m-1892 -1 c-2 -20
-8 -25 -30 -25 -23 0 -28 4 -28 25 0 21 5 25 30 25 26 0 29 -3 28 -25z m1536
0 c24 -24 45 -85 29 -85 -5 0 -27 13 -49 29 -21 15 -52 33 -69 39 l-30 10 33
1 c19 1 35 7 38 16 8 21 19 19 48 -10z m-408 8 c-3 -4 -12 -8 -19 -9 -7 -1
-25 -5 -42 -9 l-30 -6 25 15 c25 15 80 23 66 9z m-925 -65 c10 -18 9 -20 -5
-15 -11 4 -16 1 -16 -10 0 -14 -2 -14 -20 2 -25 23 -26 39 -1 32 15 -3 18 -1
14 11 -9 22 14 6 28 -20z m891 0 c-9 -9 -15 -9 -24 0 -9 9 -7 12 12 12 19 0
21 -3 12 -12z m712 -33 c11 -8 18 -17 15 -19 -2 -3 -15 4 -29 14 -14 11 -20
20 -15 19 6 0 19 -6 29 -14z m1583 -17 c-3 -8 -6 -5 -6 6 -1 11 2 17 5 13 3
-3 4 -12 1 -19z m-1860 -15 c60 -20 65 -28 26 -36 -34 -6 -54 4 -27 14 14 6
10 8 -17 8 -39 1 -92 30 -55 31 11 0 43 -8 73 -17z m-1598 -52 c12 -21 5 -31
-20 -31 -9 0 -30 -8 -47 -17 -31 -18 -62 -13 -62 11 0 9 7 12 20 9 12 -3 20 0
20 6 0 7 5 9 10 6 6 -3 10 -1 10 4 0 6 3 10 8 10 4 -1 14 -1 22 0 13 1 13 2 0
11 -12 8 -11 10 7 10 12 0 27 -8 32 -19z m1553 7 c-9 -9 -15 -9 -24 0 -9 9 -7
12 12 12 19 0 21 -3 12 -12z m628 -11 c0 -7 -17 -20 -38 -30 -34 -16 -38 -22
-34 -48 4 -29 4 -29 -45 -29 -27 0 -54 -5 -61 -12 -9 -9 -16 -8 -29 5 -16 15
-16 19 3 54 19 37 22 38 75 38 40 0 62 6 84 22 30 22 45 22 45 0z m-571 -21
c7 -5 10 -14 8 -20 -3 -8 3 -12 16 -11 12 1 36 -5 52 -14 29 -15 29 -16 6 -19
-13 -2 -28 1 -34 7 -6 6 -22 11 -36 11 -30 1 -61 21 -61 41 0 11 -2 11 -10 -1
-9 -13 -11 -13 -20 0 -5 8 -10 18 -10 21 0 8 72 -5 89 -15z m86 4 c-3 -5 -1
-10 6 -10 7 0 10 -2 7 -5 -7 -8 -38 5 -38 16 0 5 7 9 16 9 8 0 12 -4 9 -10z
m-1835 -31 c0 -4 -7 -10 -16 -13 -8 -3 -12 -11 -9 -17 4 -6 1 -9 -6 -8 -15 2
-14 3 -143 -52 -50 -21 -92 -36 -95 -34 -9 9 13 21 114 60 97 38 130 57 118
68 -3 3 4 5 16 4 11 -1 21 -4 21 -8z m554 -24 c3 -8 13 -15 22 -15 10 0 14 -5
11 -14 -3 -8 0 -17 7 -19 8 -3 14 -17 14 -32 0 -15 4 -31 9 -36 5 -5 117 -48
249 -95 443 -157 463 -165 458 -179 -7 -17 -4 -18 -349 105 -445 160 -399 139
-405 185 -3 24 -10 39 -17 38 -7 -2 -10 4 -7 12 4 9 0 15 -9 15 -8 0 -20 6
-26 14 -10 11 -8 17 6 25 24 14 30 14 37 -4z m1206 -26 c0 -5 -4 -9 -10 -9 -5
0 -10 7 -10 16 0 8 5 12 10 9 6 -3 10 -10 10 -16z m44 -30 c13 11 16 11 16 -2
0 -13 -20 -27 -39 -27 -4 0 -8 10 -8 22 -2 17 0 19 7 9 7 -12 11 -12 24 -2z
m272 -29 c180 -60 644 -227 651 -234 17 -17 -10 -13 -68 9 -35 13 -147 54
-249 90 -246 88 -454 166 -459 171 -9 8 10 3 125 -36z m-1680 11 c-38 -8 -35
-23 6 -37 l32 -11 -24 -16 c-48 -31 -104 -50 -108 -37 -3 7 -13 21 -24 32 -11
11 -18 21 -16 23 20 18 110 54 133 53 l30 0 -29 -7z m17 -18 c-7 -2 -21 -2
-30 0 -10 3 -4 5 12 5 17 0 24 -2 18 -5z m-183 -63 c0 -4 -11 -11 -25 -14 -13
-3 -63 -25 -110 -48 -55 -26 -89 -38 -95 -32 -6 6 31 28 103 60 107 48 127 54
127 34z m203 -20 c-5 -19 -3 -19 22 -10 15 6 30 9 32 7 8 -9 -10 -37 -24 -37
-8 0 -27 -7 -44 -15 -26 -14 -32 -14 -57 -1 -15 8 -22 15 -15 16 8 0 10 7 6
18 -6 15 -5 15 10 3 15 -12 17 -11 17 6 0 25 8 33 36 33 17 0 21 -4 17 -20z
m1401 5 c15 -3 26 -9 22 -12 -3 -3 -1 -12 5 -19 6 -7 -7 -4 -30 7 -22 10 -47
19 -56 19 -9 0 -13 5 -10 10 4 6 14 9 23 6 10 -2 30 -7 46 -11z m-1494 -20 c0
-17 -32 -65 -40 -60 -10 6 -14 -7 -11 -32 3 -20 -16 -24 -44 -9 -19 10 -23 16
-14 22 7 4 15 2 17 -4 8 -26 24 -11 18 18 -4 21 -2 30 7 29 26 -3 38 1 31 12
-3 6 0 15 7 20 16 10 29 12 29 4z m1694 -64 c32 -10 54 -21 49 -24 -6 -4 -24
0 -42 9 -17 8 -40 16 -51 17 -11 1 -20 5 -20 9 0 10 -5 11 64 -11z m-1428 -10
c5 -6 43 -21 84 -34 90 -30 137 -53 118 -59 -19 -7 -89 23 -81 34 3 6 -3 8
-15 4 -11 -4 -23 -2 -27 4 -3 6 -11 8 -16 5 -5 -4 -9 -1 -9 4 0 6 -9 11 -21
11 -25 0 -59 17 -59 30 0 13 13 13 26 1z m1127 -74 c9 -4 17 -2 17 3 0 6 4 10
9 10 5 0 7 -9 4 -19 -4 -17 -9 -18 -36 -9 -18 5 -38 12 -46 14 -11 3 -11 7 -1
19 11 13 14 13 24 2 6 -8 19 -17 29 -20z m-1556 -1 c6 -5 -22 -76 -29 -76 -5
0 -8 6 -7 13 4 33 -2 57 -16 57 -8 0 -15 4 -15 10 0 7 56 4 67 -4z m1803 4
c18 -12 2 -12 -25 0 -13 6 -15 9 -5 9 8 0 22 -4 30 -9z m-2270 -36 c-23 -14
-23 -14 -2 -9 13 4 22 2 22 -5 0 -6 5 -8 13 -4 9 6 9 4 -1 -8 -7 -9 -21 -14
-33 -11 -25 7 -139 -45 -139 -63 0 -20 -38 -24 -43 -4 -7 29 4 38 99 80 90 40
129 52 84 24z m920 6 c0 -5 -8 -10 -17 -10 -15 0 -16 2 -3 10 19 12 20 12 20
0z m887 3 c-4 -3 -2 -12 4 -20 7 -7 7 -13 2 -13 -6 0 -8 -11 -6 -24 3 -16 10
-23 19 -19 17 6 18 -14 2 -30 -20 -18 -55 -20 -55 -3 0 8 4 13 8 10 4 -2 11 0
14 6 4 6 1 9 -7 8 -8 -2 -14 9 -16 30 -3 33 11 62 31 62 6 0 7 -3 4 -7z m223
-13 c8 -5 11 -10 5 -10 -5 0 -17 5 -25 10 -8 5 -10 10 -5 10 6 0 17 -5 25 -10z
m1110 0 c0 -5 -5 -10 -11 -10 -5 0 -7 5 -4 10 3 6 8 10 11 10 2 0 4 -4 4 -10z
m-2150 -22 c0 -5 -9 -4 -20 2 -11 6 -20 12 -20 14 0 2 9 2 20 -1 11 -3 20 -9
20 -15z m1037 -22 c-2 -6 -11 -10 -18 -9 -9 2 -15 -6 -16 -19 -2 -25 -18 -43
-31 -34 -10 6 -10 18 1 49 4 9 9 24 12 32 3 12 9 13 30 3 14 -6 24 -16 22 -22z
m-2266 -9 c-7 -7 -18 -7 -36 1 -36 17 -23 34 16 20 21 -7 27 -14 20 -21z
m1516 7 c-6 -6 -47 9 -47 17 0 5 11 3 25 -3 14 -6 24 -13 22 -14z m647 7 c8
-7 20 -10 26 -6 5 3 10 2 10 -3 0 -17 -29 -22 -58 -10 -15 6 -29 12 -32 12 -3
1 -13 6 -23 12 -14 8 -10 10 22 9 21 0 46 -7 55 -14z m-1188 -6 c19 -14 19
-14 -2 -15 -11 0 -29 7 -40 15 -19 14 -19 14 2 15 11 0 29 -7 40 -15z m291 9
c-3 -3 -12 -4 -19 -1 -8 3 -5 6 6 6 11 1 17 -2 13 -5z m686 -20 c-12 -10 -13
-12 -3 -9 23 8 22 -29 -1 -43 -17 -11 -19 -9 -19 21 0 34 17 60 32 51 5 -3 1
-12 -9 -20z m-2004 2 c23 -13 24 -14 5 -24 -11 -6 -35 -10 -55 -9 -27 1 -35 5
-36 20 -1 12 3 17 13 13 8 -3 14 -1 14 4 0 14 31 12 59 -4z m839 -54 c-11 -5
-148 50 -148 59 0 3 35 -8 79 -25 43 -17 74 -33 69 -34z m561 42 c3 -3 -6 -3
-22 1 -17 5 -33 2 -42 -5 -10 -9 -15 -9 -15 -1 0 6 5 11 11 11 5 0 8 4 4 9 -6
10 53 -3 64 -15z m-1049 -4 c0 -5 -4 -10 -10 -10 -5 0 -10 5 -10 10 0 6 5 10
10 10 6 0 10 -4 10 -10z m1396 -6 c21 -5 35 -24 17 -24 -18 0 -73 25 -73 33 0
5 7 6 16 3 9 -3 27 -9 40 -12z m-256 -2 c0 -14 -93 -57 -129 -59 -31 -2 -33 0
-16 9 11 6 23 16 27 22 5 7 8 4 8 -6 0 -24 8 -23 60 12 50 33 50 33 50 22z
m197 -18 c4 -13 -24 -27 -37 -19 -5 3 -7 12 -3 21 6 17 34 15 40 -2z m-1843
-6 c-7 -11 -34 -10 -34 1 0 6 9 9 19 8 11 0 17 -5 15 -9z m1081 0 c20 -9 35
-28 21 -28 -15 0 -66 24 -66 31 0 12 14 11 45 -3z"/>
<path d="M1390 1010 c-9 -6 -10 -10 -3 -10 6 0 15 5 18 10 8 12 4 12 -15 0z"/>
<path d="M423 110 c-13 -5 -23 -11 -23 -14 0 -7 40 6 46 15 6 10 6 10 -23 -1z"/>
<path d="M365 70 c3 -5 8 -10 11 -10 2 0 4 5 4 10 0 6 -5 10 -11 10 -5 0 -7
-4 -4 -10z"/>
<path d="M4629 3388 c-6 -21 -5 -38 2 -38 5 0 9 9 9 20 0 16 -7 28 -11 18z"/>
<path d="M4661 3364 c0 -11 3 -14 6 -6 3 7 2 16 -1 19 -3 4 -6 -2 -5 -13z"/>
<path d="M4770 3335 c0 -8 5 -15 10 -15 6 0 10 7 10 15 0 8 -4 15 -10 15 -5 0
-10 -7 -10 -15z"/>
<path d="M4748 891 c-31 -18 -101 -94 -228 -247 -47 -56 -187 -224 -313 -373
l-227 -271 40 0 c37 0 43 4 97 73 32 39 144 178 249 307 238 294 417 521 412
524 -1 2 -15 -4 -30 -13z"/>
<path d="M1519 546 c-3 -3 -3 -23 -1 -45 4 -39 6 -40 69 -65 64 -25 65 -25 86
-6 13 12 16 20 8 20 -7 0 -11 6 -8 14 4 11 -4 13 -36 10 -34 -3 -37 -2 -17 5
16 6 19 9 8 10 -10 1 -18 11 -20 28 -4 33 -27 43 -35 14 -3 -12 -10 -21 -15
-21 -5 0 -6 5 -2 11 9 15 -25 37 -37 25z"/>
<path d="M2316 391 c-3 -5 0 -11 7 -14 8 -3 14 1 14 9 0 16 -13 19 -21 5z"/>
<path d="M2465 290 c-3 -5 -1 -10 4 -10 6 0 11 5 11 10 0 6 -2 10 -4 10 -3 0
-8 -4 -11 -10z"/>
<path d="M2410 256 c0 -2 7 -7 16 -10 8 -3 12 -2 9 4 -6 10 -25 14 -25 6z"/>
<path d="M2798 253 c7 -3 16 -2 19 1 4 3 -2 6 -13 5 -11 0 -14 -3 -6 -6z"/>
<path d="M2953 224 c0 -10 7 -14 19 -11 10 3 15 1 12 -4 -3 -6 5 -7 22 -3 16
4 25 3 21 -3 -3 -5 3 -14 13 -21 14 -8 19 -8 23 2 5 13 -6 21 -66 45 -37 15
-44 14 -44 -5z"/>
<path d="M2936 201 c10 -10 72 -26 63 -17 -4 4 -21 11 -39 16 -19 5 -29 6 -24
1z"/>
<path d="M3116 171 c-4 -5 3 -7 14 -4 23 6 26 13 6 13 -8 0 -17 -4 -20 -9z"/>
<path d="M3170 149 c-13 -6 -35 -7 -47 -4 -40 10 -25 -3 24 -19 48 -16 74 -14
32 3 -16 7 -19 10 -7 10 9 1 20 6 23 11 7 12 7 12 -25 -1z"/>
<path d="M3066 121 c-15 -6 -10 -10 24 -20 23 -7 45 -10 48 -7 3 3 -1 6 -9 6
-12 0 -11 2 1 10 11 7 5 9 -20 5 -27 -4 -30 -3 -15 4 24 12 0 13 -29 2z"/>
<path d="M3289 112 c11 -8 10 -11 -5 -15 -15 -4 -14 -5 4 -4 27 2 31 21 5 25
-14 2 -15 1 -4 -6z"/>
<path d="M3158 101 c24 -15 -29 -21 -71 -9 -32 10 -40 9 -47 -2 -11 -18 5 -29
33 -22 15 4 18 2 12 -8 -6 -9 -4 -11 5 -5 7 4 16 2 21 -6 6 -11 15 -7 38 17
29 29 31 44 7 44 -6 0 -5 -4 2 -9z"/>
<path d="M3390 80 c12 -7 8 -10 -14 -10 -38 0 -27 -11 12 -12 30 -1 30 -1 14
-26 -11 -17 -17 -21 -21 -11 -4 15 -21 29 -35 29 -6 0 -2 -6 9 -13 16 -13 15
-14 -16 -9 -25 3 -31 1 -23 -7 21 -22 71 -21 92 2 20 23 41 58 27 45 -4 -4
-14 -1 -22 7 -8 8 -20 15 -26 15 -7 0 -6 -4 3 -10z"/>
<path d="M3254 71 c5 -7 -2 -11 -20 -11 -20 0 -25 -3 -17 -11 15 -15 58 -7 58
10 0 8 -6 16 -14 19 -8 3 -11 0 -7 -7z"/>
<path d="M3178 23 c6 -3 9 -9 6 -15 -4 -6 7 -8 27 -6 47 4 42 23 -6 24 -22 1
-34 -1 -27 -3z"/>
</g>
</svg>
